<?xml version="1.0" encoding="UTF-8"?>
<svg width="24" height="24" viewBox="0 0 24 24" fill="none" xmlns="http://www.w3.org/2000/svg">
  <path d="M12 0C5.4 0 0 5.4 0 12C0 18.6 5.4 24 12 24C18.6 24 24 18.6 24 12C24 5.4 18.6 0 12 0Z" fill="#0052FF"/>
  <path d="M12 4.5C7.86 4.5 4.5 7.86 4.5 12C4.5 16.14 7.86 19.5 12 19.5C16.14 19.5 19.5 16.14 19.5 12C19.5 7.86 16.14 4.5 12 4.5ZM12 16.5C9.51 16.5 7.5 14.49 7.5 12C7.5 9.51 9.51 7.5 12 7.5C14.49 7.5 16.5 9.51 16.5 12C16.5 14.49 14.49 16.5 12 16.5Z" fill="white"/>
</svg>
