<?xml version="1.0" encoding="UTF-8"?>
<svg width="24" height="24" viewBox="0 0 24 24" fill="none" xmlns="http://www.w3.org/2000/svg">
  <path d="M20.25 2H15.75L12 8.25L13.5 6.75H16.5L20.25 2Z" fill="#E2761B"/>
  <path d="M3.75 2L7.5 6.75H10.5L12 8.25L8.25 2H3.75Z" fill="#E4761B"/>
  <path d="M18.75 15.75L20.25 10.5L18 9.75L15 15.75L12 18L15.75 20.25L18.75 18.75L19.5 15.75H18.75Z" fill="#E4761B"/>
  <path d="M5.25 15.75L4.5 18.75L7.5 20.25L11.25 18L8.25 15.75H5.25Z" fill="#E4761B"/>
  <path d="M8.25 9.75L11.25 10.5L10.5 6.75L8.25 9.75Z" fill="#E4761B"/>
  <path d="M15.75 9.75L13.5 6.75L12.75 10.5L15.75 9.75Z" fill="#E4761B"/>
  <path d="M12 10.5L15 15.75L12 18L9 15.75L12 10.5Z" fill="#E4761B"/>
  <path d="M12 18L15 15.75L13.5 17.25L12 18Z" fill="#D7C1B3"/>
  <path d="M9 15.75L7.5 17.25L12 18L9 15.75Z" fill="#233447"/>
  <path d="M15.75 9.75L12 10.5L13.5 6.75L15.75 9.75Z" fill="#CD6116"/>
  <path d="M8.25 9.75L10.5 6.75L12 10.5L8.25 9.75Z" fill="#E4751F"/>
  <path d="M5.25 15.75L7.5 9.75L4.5 10.5L5.25 15.75Z" fill="#F6851B"/>
  <path d="M18.75 15.75L19.5 10.5L16.5 9.75L18.75 15.75Z" fill="#F6851B"/>
  <path d="M15.75 9.75L12 10.5L15 15.75L15.75 9.75Z" fill="#F6851B"/>
  <path d="M8.25 9.75L9 15.75L12 10.5L8.25 9.75Z" fill="#F6851B"/>
</svg>
